<mxfile host="app.diagrams.net" modified="2023-07-25T12:11:15.718Z" agent="Mozilla/5.0 (Windows NT 10.0; Win64; x64) AppleWebKit/537.36 (KHTML, like Gecko) Chrome/114.0.0.0 Safari/537.36" etag="xrt_I0W9oYaOz2i-YQyY" version="21.6.5" type="device">
  <diagram name="PÃ¡gina-1" id="q3QMvKFIjN00zuuKxxp1">
    <mxGraphModel dx="1877" dy="581" grid="1" gridSize="10" guides="1" tooltips="1" connect="1" arrows="1" fold="1" page="1" pageScale="1" pageWidth="827" pageHeight="1169" math="0" shadow="0">
      <root>
        <mxCell id="0" />
        <mxCell id="1" parent="0" />
        <mxCell id="w7bhEXBvD5bk2jqg5th7-12" style="edgeStyle=orthogonalEdgeStyle;rounded=0;orthogonalLoop=1;jettySize=auto;html=1;" parent="1" source="w7bhEXBvD5bk2jqg5th7-1" target="w7bhEXBvD5bk2jqg5th7-2" edge="1">
          <mxGeometry relative="1" as="geometry" />
        </mxCell>
        <mxCell id="w7bhEXBvD5bk2jqg5th7-1" value="Empresa" style="rounded=0;whiteSpace=wrap;html=1;" parent="1" vertex="1">
          <mxGeometry x="320" y="80" width="120" height="60" as="geometry" />
        </mxCell>
        <mxCell id="w7bhEXBvD5bk2jqg5th7-2" value="Possui" style="rhombus;whiteSpace=wrap;html=1;" parent="1" vertex="1">
          <mxGeometry x="340" y="230" width="80" height="80" as="geometry" />
        </mxCell>
        <mxCell id="w7bhEXBvD5bk2jqg5th7-13" style="edgeStyle=orthogonalEdgeStyle;rounded=0;orthogonalLoop=1;jettySize=auto;html=1;" parent="1" source="w7bhEXBvD5bk2jqg5th7-4" edge="1">
          <mxGeometry relative="1" as="geometry">
            <mxPoint x="380" y="310" as="targetPoint" />
          </mxGeometry>
        </mxCell>
        <mxCell id="w7bhEXBvD5bk2jqg5th7-41" style="edgeStyle=orthogonalEdgeStyle;rounded=0;orthogonalLoop=1;jettySize=auto;html=1;entryX=0;entryY=0.5;entryDx=0;entryDy=0;" parent="1" source="w7bhEXBvD5bk2jqg5th7-4" target="w7bhEXBvD5bk2jqg5th7-39" edge="1">
          <mxGeometry relative="1" as="geometry" />
        </mxCell>
        <mxCell id="w7bhEXBvD5bk2jqg5th7-4" value="Veiculo" style="rounded=0;whiteSpace=wrap;html=1;" parent="1" vertex="1">
          <mxGeometry x="320" y="410" width="120" height="60" as="geometry" />
        </mxCell>
        <mxCell id="w7bhEXBvD5bk2jqg5th7-22" style="edgeStyle=orthogonalEdgeStyle;rounded=0;orthogonalLoop=1;jettySize=auto;html=1;" parent="1" source="w7bhEXBvD5bk2jqg5th7-18" target="w7bhEXBvD5bk2jqg5th7-21" edge="1">
          <mxGeometry relative="1" as="geometry">
            <Array as="points">
              <mxPoint x="300" y="610" />
              <mxPoint x="380" y="610" />
            </Array>
          </mxGeometry>
        </mxCell>
        <mxCell id="w7bhEXBvD5bk2jqg5th7-36" style="edgeStyle=orthogonalEdgeStyle;rounded=0;orthogonalLoop=1;jettySize=auto;html=1;entryX=1;entryY=0.5;entryDx=0;entryDy=0;" parent="1" source="w7bhEXBvD5bk2jqg5th7-18" target="w7bhEXBvD5bk2jqg5th7-25" edge="1">
          <mxGeometry relative="1" as="geometry" />
        </mxCell>
        <mxCell id="w7bhEXBvD5bk2jqg5th7-18" value="Marca" style="rounded=0;whiteSpace=wrap;html=1;" parent="1" vertex="1">
          <mxGeometry x="240" y="640" width="120" height="60" as="geometry" />
        </mxCell>
        <mxCell id="w7bhEXBvD5bk2jqg5th7-23" style="edgeStyle=orthogonalEdgeStyle;rounded=0;orthogonalLoop=1;jettySize=auto;html=1;entryX=0.5;entryY=1;entryDx=0;entryDy=0;exitX=0.563;exitY=-0.05;exitDx=0;exitDy=0;exitPerimeter=0;" parent="1" source="w7bhEXBvD5bk2jqg5th7-19" target="w7bhEXBvD5bk2jqg5th7-21" edge="1">
          <mxGeometry relative="1" as="geometry">
            <Array as="points">
              <mxPoint x="468" y="610" />
              <mxPoint x="380" y="610" />
            </Array>
          </mxGeometry>
        </mxCell>
        <mxCell id="w7bhEXBvD5bk2jqg5th7-32" style="edgeStyle=orthogonalEdgeStyle;rounded=0;orthogonalLoop=1;jettySize=auto;html=1;entryX=0;entryY=0.5;entryDx=0;entryDy=0;" parent="1" source="w7bhEXBvD5bk2jqg5th7-19" target="w7bhEXBvD5bk2jqg5th7-29" edge="1">
          <mxGeometry relative="1" as="geometry" />
        </mxCell>
        <mxCell id="w7bhEXBvD5bk2jqg5th7-19" value="Modelo" style="whiteSpace=wrap;html=1;" parent="1" vertex="1">
          <mxGeometry x="400" y="640" width="120" height="60" as="geometry" />
        </mxCell>
        <mxCell id="w7bhEXBvD5bk2jqg5th7-24" style="edgeStyle=orthogonalEdgeStyle;rounded=0;orthogonalLoop=1;jettySize=auto;html=1;entryX=0.5;entryY=1;entryDx=0;entryDy=0;" parent="1" source="w7bhEXBvD5bk2jqg5th7-21" target="w7bhEXBvD5bk2jqg5th7-4" edge="1">
          <mxGeometry relative="1" as="geometry" />
        </mxCell>
        <mxCell id="w7bhEXBvD5bk2jqg5th7-21" value="Possui" style="rhombus;whiteSpace=wrap;html=1;" parent="1" vertex="1">
          <mxGeometry x="340" y="510" width="80" height="80" as="geometry" />
        </mxCell>
        <mxCell id="w7bhEXBvD5bk2jqg5th7-25" value="Nome da marca" style="ellipse;whiteSpace=wrap;html=1;" parent="1" vertex="1">
          <mxGeometry x="110" y="650" width="80" height="40" as="geometry" />
        </mxCell>
        <mxCell id="w7bhEXBvD5bk2jqg5th7-29" value="Nome do modelo" style="ellipse;whiteSpace=wrap;html=1;" parent="1" vertex="1">
          <mxGeometry x="560" y="650" width="80" height="40" as="geometry" />
        </mxCell>
        <mxCell id="w7bhEXBvD5bk2jqg5th7-39" value="Placa" style="ellipse;whiteSpace=wrap;html=1;" parent="1" vertex="1">
          <mxGeometry x="480" y="425" width="75" height="30" as="geometry" />
        </mxCell>
        <mxCell id="w7bhEXBvD5bk2jqg5th7-45" style="edgeStyle=orthogonalEdgeStyle;rounded=0;orthogonalLoop=1;jettySize=auto;html=1;entryX=1;entryY=0.5;entryDx=0;entryDy=0;" parent="1" source="w7bhEXBvD5bk2jqg5th7-42" target="w7bhEXBvD5bk2jqg5th7-44" edge="1">
          <mxGeometry relative="1" as="geometry" />
        </mxCell>
        <mxCell id="w7bhEXBvD5bk2jqg5th7-46" style="edgeStyle=orthogonalEdgeStyle;rounded=0;orthogonalLoop=1;jettySize=auto;html=1;entryX=1;entryY=0.5;entryDx=0;entryDy=0;" parent="1" source="w7bhEXBvD5bk2jqg5th7-42" target="w7bhEXBvD5bk2jqg5th7-43" edge="1">
          <mxGeometry relative="1" as="geometry" />
        </mxCell>
        <mxCell id="w7bhEXBvD5bk2jqg5th7-48" style="edgeStyle=orthogonalEdgeStyle;rounded=0;orthogonalLoop=1;jettySize=auto;html=1;" parent="1" source="w7bhEXBvD5bk2jqg5th7-42" target="w7bhEXBvD5bk2jqg5th7-47" edge="1">
          <mxGeometry relative="1" as="geometry" />
        </mxCell>
        <mxCell id="w7bhEXBvD5bk2jqg5th7-42" value="Cliente" style="rounded=0;whiteSpace=wrap;html=1;" parent="1" vertex="1">
          <mxGeometry x="80" y="80" width="120" height="60" as="geometry" />
        </mxCell>
        <mxCell id="w7bhEXBvD5bk2jqg5th7-43" value="cpf" style="ellipse;whiteSpace=wrap;html=1;" parent="1" vertex="1">
          <mxGeometry x="-40" y="80" width="70" height="20" as="geometry" />
        </mxCell>
        <mxCell id="w7bhEXBvD5bk2jqg5th7-44" value="Nome" style="ellipse;whiteSpace=wrap;html=1;" parent="1" vertex="1">
          <mxGeometry x="-40" y="120" width="70" height="20" as="geometry" />
        </mxCell>
        <mxCell id="w7bhEXBvD5bk2jqg5th7-49" style="edgeStyle=orthogonalEdgeStyle;rounded=0;orthogonalLoop=1;jettySize=auto;html=1;entryX=0;entryY=0.5;entryDx=0;entryDy=0;" parent="1" source="w7bhEXBvD5bk2jqg5th7-47" target="w7bhEXBvD5bk2jqg5th7-4" edge="1">
          <mxGeometry relative="1" as="geometry" />
        </mxCell>
        <mxCell id="w7bhEXBvD5bk2jqg5th7-47" value="Aluga" style="rhombus;whiteSpace=wrap;html=1;" parent="1" vertex="1">
          <mxGeometry x="100" y="220" width="80" height="80" as="geometry" />
        </mxCell>
        <mxCell id="w7bhEXBvD5bk2jqg5th7-50" value="1" style="text;html=1;align=center;verticalAlign=middle;resizable=0;points=[];autosize=1;strokeColor=none;fillColor=none;" parent="1" vertex="1">
          <mxGeometry x="135" y="140" width="30" height="30" as="geometry" />
        </mxCell>
        <mxCell id="w7bhEXBvD5bk2jqg5th7-51" value="1" style="text;html=1;align=center;verticalAlign=middle;resizable=0;points=[];autosize=1;strokeColor=none;fillColor=none;" parent="1" vertex="1">
          <mxGeometry x="384" y="140" width="30" height="30" as="geometry" />
        </mxCell>
        <mxCell id="w7bhEXBvD5bk2jqg5th7-52" value="N" style="text;html=1;align=center;verticalAlign=middle;resizable=0;points=[];autosize=1;strokeColor=none;fillColor=none;" parent="1" vertex="1">
          <mxGeometry x="385" y="378" width="30" height="30" as="geometry" />
        </mxCell>
        <mxCell id="w7bhEXBvD5bk2jqg5th7-53" value="1" style="text;html=1;align=center;verticalAlign=middle;resizable=0;points=[];autosize=1;strokeColor=none;fillColor=none;" parent="1" vertex="1">
          <mxGeometry x="255" y="610" width="30" height="30" as="geometry" />
        </mxCell>
        <mxCell id="w7bhEXBvD5bk2jqg5th7-54" value="1" style="text;html=1;align=center;verticalAlign=middle;resizable=0;points=[];autosize=1;strokeColor=none;fillColor=none;" parent="1" vertex="1">
          <mxGeometry x="480" y="610" width="30" height="30" as="geometry" />
        </mxCell>
      </root>
    </mxGraphModel>
  </diagram>
</mxfile>
